<?xml version="1.0" standalone="no"?>
<!DOCTYPE svg PUBLIC "-//W3C//DTD SVG 1.1//EN" "http://www.w3.org/Graphics/SVG/1.1/DTD/svg11.dtd">
<svg width="272mm" height="28mm" viewBox="-136 -14 272 28" xmlns="http://www.w3.org/2000/svg" version="1.1">
<title>OpenSCAD Model</title>
<path d="
M 87.3137,-6.81541 L 87.6243,-6.86149 L 87.9289,-6.93779 L 88.2246,-7.04359 L 88.5085,-7.17785 L 88.7778,-7.3393
 L 89.0301,-7.52637 L 89.2627,-7.73726 L 89.4736,-7.96994 L 89.6607,-8.22218 L 89.8221,-8.49153 L 89.9564,-8.77541
 L 90.0622,-9.07109 L 90.1385,-9.37571 L 90.1846,-9.68635 L 90.2,-10 L 90.1846,-10.3137 L 90.1385,-10.6243
 L 90.0622,-10.9289 L 89.9564,-11.2246 L 89.8221,-11.5085 L 89.6607,-11.7778 L 89.4736,-12.0301 L 89.2627,-12.2627
 L 89.0301,-12.4736 L 88.7778,-12.6607 L 88.5085,-12.8221 L 88.2246,-12.9564 L 87.9289,-13.0622 L 87.6243,-13.1385
 L 87.3137,-13.1846 L 87,-13.2 L 86.6863,-13.1846 L 86.3757,-13.1385 L 86.0711,-13.0622 L 85.7754,-12.9564
 L 85.4915,-12.8221 L 85.2222,-12.6607 L 84.9699,-12.4736 L 84.7373,-12.2627 L 84.5264,-12.0301 L 84.3393,-11.7778
 L 84.1779,-11.5085 L 84.0436,-11.2246 L 83.9378,-10.9289 L 83.8615,-10.6243 L 83.8154,-10.3137 L 83.8,-10
 L 83.8154,-9.68635 L 83.8615,-9.37571 L 83.9378,-9.07109 L 84.0436,-8.77541 L 84.1779,-8.49153 L 84.3393,-8.22218
 L 84.5264,-7.96994 L 84.7373,-7.73726 L 84.9699,-7.52637 L 85.2222,-7.3393 L 85.4915,-7.17785 L 85.7754,-7.04359
 L 86.0711,-6.93779 L 86.3757,-6.86149 L 86.6863,-6.81541 L 87,-6.8 z
M 43.3137,-6.81541 L 43.6243,-6.86149 L 43.9289,-6.93779 L 44.2246,-7.04359 L 44.5085,-7.17785 L 44.7778,-7.3393
 L 45.0301,-7.52637 L 45.2627,-7.73726 L 45.4736,-7.96994 L 45.6607,-8.22218 L 45.8221,-8.49153 L 45.9564,-8.77541
 L 46.0622,-9.07109 L 46.1385,-9.37571 L 46.1846,-9.68635 L 46.2,-10 L 46.1846,-10.3137 L 46.1385,-10.6243
 L 46.0622,-10.9289 L 45.9564,-11.2246 L 45.8221,-11.5085 L 45.6607,-11.7778 L 45.4736,-12.0301 L 45.2627,-12.2627
 L 45.0301,-12.4736 L 44.7778,-12.6607 L 44.5085,-12.8221 L 44.2246,-12.9564 L 43.9289,-13.0622 L 43.6243,-13.1385
 L 43.3137,-13.1846 L 43,-13.2 L 42.6863,-13.1846 L 42.3757,-13.1385 L 42.0711,-13.0622 L 41.7754,-12.9564
 L 41.4915,-12.8221 L 41.2222,-12.6607 L 40.9699,-12.4736 L 40.7373,-12.2627 L 40.5264,-12.0301 L 40.3393,-11.7778
 L 40.1779,-11.5085 L 40.0436,-11.2246 L 39.9378,-10.9289 L 39.8615,-10.6243 L 39.8154,-10.3137 L 39.8,-10
 L 39.8154,-9.68635 L 39.8615,-9.37571 L 39.9378,-9.07109 L 40.0436,-8.77541 L 40.1779,-8.49153 L 40.3393,-8.22218
 L 40.5264,-7.96994 L 40.7373,-7.73726 L 40.9699,-7.52637 L 41.2222,-7.3393 L 41.4915,-7.17785 L 41.7754,-7.04359
 L 42.0711,-6.93779 L 42.3757,-6.86149 L 42.6863,-6.81541 L 43,-6.8 z
M 36.296,12.6904 L 36.4902,12.6616 L 36.6806,12.6139 L 36.8654,12.5478 L 37.0428,12.4638 L 37.2111,12.3629
 L 37.3688,12.246 L 37.5142,12.1142 L 37.646,11.9688 L 37.7629,11.8111 L 37.8638,11.6428 L 37.9478,11.4654
 L 38.0139,11.2806 L 38.0616,11.0902 L 38.0904,10.896 L 38.1,10.7 L 38.1,-10.7 L 38.0904,-10.896
 L 38.0616,-11.0902 L 38.0139,-11.2806 L 37.9478,-11.4654 L 37.8638,-11.6428 L 37.7629,-11.8111 L 37.646,-11.9688
 L 37.5142,-12.1142 L 37.3688,-12.246 L 37.2111,-12.3629 L 37.0428,-12.4638 L 36.8654,-12.5478 L 36.6806,-12.6139
 L 36.4902,-12.6616 L 36.296,-12.6904 L 36.1,-12.7 L -36.1,-12.7 L -36.296,-12.6904 L -36.4902,-12.6616
 L -36.6806,-12.6139 L -36.8654,-12.5478 L -37.0428,-12.4638 L -37.2111,-12.3629 L -37.3688,-12.246 L -37.5142,-12.1142
 L -37.646,-11.9688 L -37.7629,-11.8111 L -37.8638,-11.6428 L -37.9478,-11.4654 L -38.0139,-11.2806 L -38.0616,-11.0902
 L -38.0904,-10.896 L -38.1,-10.7 L -38.1,10.7 L -38.0904,10.896 L -38.0616,11.0902 L -38.0139,11.2806
 L -37.9478,11.4654 L -37.8638,11.6428 L -37.7629,11.8111 L -37.646,11.9688 L -37.5142,12.1142 L -37.3688,12.246
 L -37.2111,12.3629 L -37.0428,12.4638 L -36.8654,12.5478 L -36.6806,12.6139 L -36.4902,12.6616 L -36.296,12.6904
 L -36.1,12.7 L 36.1,12.7 z
M -132.186,3.18459 L -131.876,3.13851 L -131.571,3.06221 L -131.275,2.95641 L -130.992,2.82215 L -130.722,2.6607
 L -130.47,2.47363 L -130.237,2.26274 L -130.026,2.03006 L -129.839,1.77782 L -129.678,1.50847 L -129.544,1.22459
 L -129.438,0.928911 L -129.361,0.624289 L -129.315,0.313655 L -129.3,-0 L -129.315,-0.313655 L -129.361,-0.624289
 L -129.438,-0.928911 L -129.544,-1.22459 L -129.678,-1.50847 L -129.839,-1.77782 L -130.026,-2.03006 L -130.237,-2.26274
 L -130.47,-2.47363 L -130.722,-2.6607 L -130.992,-2.82215 L -131.275,-2.95641 L -131.571,-3.06221 L -131.876,-3.13851
 L -132.186,-3.18459 L -132.5,-3.2 L -132.814,-3.18459 L -133.124,-3.13851 L -133.429,-3.06221 L -133.725,-2.95641
 L -134.008,-2.82215 L -134.278,-2.6607 L -134.53,-2.47363 L -134.763,-2.26274 L -134.974,-2.03006 L -135.161,-1.77782
 L -135.322,-1.50847 L -135.456,-1.22459 L -135.562,-0.928911 L -135.639,-0.624289 L -135.685,-0.313655 L -135.7,-0
 L -135.685,0.313655 L -135.639,0.624289 L -135.562,0.928911 L -135.456,1.22459 L -135.322,1.50847 L -135.161,1.77782
 L -134.974,2.03006 L -134.763,2.26274 L -134.53,2.47363 L -134.278,2.6607 L -134.008,2.82215 L -133.725,2.95641
 L -133.429,3.06221 L -133.124,3.13851 L -132.814,3.18459 L -132.5,3.2 z
M 132.814,3.18459 L 133.124,3.13851 L 133.429,3.06221 L 133.725,2.95641 L 134.008,2.82215 L 134.278,2.6607
 L 134.53,2.47363 L 134.763,2.26274 L 134.974,2.03006 L 135.161,1.77782 L 135.322,1.50847 L 135.456,1.22459
 L 135.562,0.928911 L 135.639,0.624289 L 135.685,0.313655 L 135.7,-0 L 135.685,-0.313655 L 135.639,-0.624289
 L 135.562,-0.928911 L 135.456,-1.22459 L 135.322,-1.50847 L 135.161,-1.77782 L 134.974,-2.03006 L 134.763,-2.26274
 L 134.53,-2.47363 L 134.278,-2.6607 L 134.008,-2.82215 L 133.725,-2.95641 L 133.429,-3.06221 L 133.124,-3.13851
 L 132.814,-3.18459 L 132.5,-3.2 L 132.186,-3.18459 L 131.876,-3.13851 L 131.571,-3.06221 L 131.275,-2.95641
 L 130.992,-2.82215 L 130.722,-2.6607 L 130.47,-2.47363 L 130.237,-2.26274 L 130.026,-2.03006 L 129.839,-1.77782
 L 129.678,-1.50847 L 129.544,-1.22459 L 129.438,-0.928911 L 129.361,-0.624289 L 129.315,-0.313655 L 129.3,-0
 L 129.315,0.313655 L 129.361,0.624289 L 129.438,0.928911 L 129.544,1.22459 L 129.678,1.50847 L 129.839,1.77782
 L 130.026,2.03006 L 130.237,2.26274 L 130.47,2.47363 L 130.722,2.6607 L 130.992,2.82215 L 131.275,2.95641
 L 131.571,3.06221 L 131.876,3.13851 L 132.186,3.18459 L 132.5,3.2 z
M -51.6863,9.18459 L -51.3757,9.13851 L -51.0711,9.06221 L -50.7754,8.95641 L -50.4915,8.82215 L -50.2222,8.6607
 L -49.9699,8.47363 L -49.7373,8.26274 L -49.5264,8.03006 L -49.3393,7.77782 L -49.1779,7.50847 L -49.0436,7.22459
 L -48.9378,6.92891 L -48.8615,6.62429 L -48.8154,6.31365 L -48.8,6 L -48.8154,5.68635 L -48.8615,5.37571
 L -48.9378,5.07109 L -49.0436,4.77541 L -49.1779,4.49153 L -49.3393,4.22218 L -49.5264,3.96994 L -49.7373,3.73726
 L -49.9699,3.52637 L -50.2222,3.3393 L -50.4915,3.17785 L -50.7754,3.04359 L -51.0711,2.93779 L -51.3757,2.86149
 L -51.6863,2.81541 L -52,2.8 L -52.3137,2.81541 L -52.6243,2.86149 L -52.9289,2.93779 L -53.2246,3.04359
 L -53.5085,3.17785 L -53.7778,3.3393 L -54.0301,3.52637 L -54.2627,3.73726 L -54.4736,3.96994 L -54.6607,4.22218
 L -54.8221,4.49153 L -54.9564,4.77541 L -55.0622,5.07109 L -55.1385,5.37571 L -55.1846,5.68635 L -55.2,6
 L -55.1846,6.31365 L -55.1385,6.62429 L -55.0622,6.92891 L -54.9564,7.22459 L -54.8221,7.50847 L -54.6607,7.77782
 L -54.4736,8.03006 L -54.2627,8.26274 L -54.0301,8.47363 L -53.7778,8.6607 L -53.5085,8.82215 L -53.2246,8.95641
 L -52.9289,9.06221 L -52.6243,9.13851 L -52.3137,9.18459 L -52,9.2 z
M -117.686,9.18459 L -117.376,9.13851 L -117.071,9.06221 L -116.775,8.95641 L -116.492,8.82215 L -116.222,8.6607
 L -115.97,8.47363 L -115.737,8.26274 L -115.526,8.03006 L -115.339,7.77782 L -115.178,7.50847 L -115.044,7.22459
 L -114.938,6.92891 L -114.861,6.62429 L -114.815,6.31365 L -114.8,6 L -114.815,5.68635 L -114.861,5.37571
 L -114.938,5.07109 L -115.044,4.77541 L -115.178,4.49153 L -115.339,4.22218 L -115.526,3.96994 L -115.737,3.73726
 L -115.97,3.52637 L -116.222,3.3393 L -116.492,3.17785 L -116.775,3.04359 L -117.071,2.93779 L -117.376,2.86149
 L -117.686,2.81541 L -118,2.8 L -118.314,2.81541 L -118.624,2.86149 L -118.929,2.93779 L -119.225,3.04359
 L -119.508,3.17785 L -119.778,3.3393 L -120.03,3.52637 L -120.263,3.73726 L -120.474,3.96994 L -120.661,4.22218
 L -120.822,4.49153 L -120.956,4.77541 L -121.062,5.07109 L -121.139,5.37571 L -121.185,5.68635 L -121.2,6
 L -121.185,6.31365 L -121.139,6.62429 L -121.062,6.92891 L -120.956,7.22459 L -120.822,7.50847 L -120.661,7.77782
 L -120.474,8.03006 L -120.263,8.26274 L -120.03,8.47363 L -119.778,8.6607 L -119.508,8.82215 L -119.225,8.95641
 L -118.929,9.06221 L -118.624,9.13851 L -118.314,9.18459 L -118,9.2 z
M 87.3137,13.1846 L 87.6243,13.1385 L 87.9289,13.0622 L 88.2246,12.9564 L 88.5085,12.8221 L 88.7778,12.6607
 L 89.0301,12.4736 L 89.2627,12.2627 L 89.4736,12.0301 L 89.6607,11.7778 L 89.8221,11.5085 L 89.9564,11.2246
 L 90.0622,10.9289 L 90.1385,10.6243 L 90.1846,10.3137 L 90.2,10 L 90.1846,9.68635 L 90.1385,9.37571
 L 90.0622,9.07109 L 89.9564,8.77541 L 89.8221,8.49153 L 89.6607,8.22218 L 89.4736,7.96994 L 89.2627,7.73726
 L 89.0301,7.52637 L 88.7778,7.3393 L 88.5085,7.17785 L 88.2246,7.04359 L 87.9289,6.93779 L 87.6243,6.86149
 L 87.3137,6.81541 L 87,6.8 L 86.6863,6.81541 L 86.3757,6.86149 L 86.0711,6.93779 L 85.7754,7.04359
 L 85.4915,7.17785 L 85.2222,7.3393 L 84.9699,7.52637 L 84.7373,7.73726 L 84.5264,7.96994 L 84.3393,8.22218
 L 84.1779,8.49153 L 84.0436,8.77541 L 83.9378,9.07109 L 83.8615,9.37571 L 83.8154,9.68635 L 83.8,10
 L 83.8154,10.3137 L 83.8615,10.6243 L 83.9378,10.9289 L 84.0436,11.2246 L 84.1779,11.5085 L 84.3393,11.7778
 L 84.5264,12.0301 L 84.7373,12.2627 L 84.9699,12.4736 L 85.2222,12.6607 L 85.4915,12.8221 L 85.7754,12.9564
 L 86.0711,13.0622 L 86.3757,13.1385 L 86.6863,13.1846 L 87,13.2 z
M 43.3137,13.1846 L 43.6243,13.1385 L 43.9289,13.0622 L 44.2246,12.9564 L 44.5085,12.8221 L 44.7778,12.6607
 L 45.0301,12.4736 L 45.2627,12.2627 L 45.4736,12.0301 L 45.6607,11.7778 L 45.8221,11.5085 L 45.9564,11.2246
 L 46.0622,10.9289 L 46.1385,10.6243 L 46.1846,10.3137 L 46.2,10 L 46.1846,9.68635 L 46.1385,9.37571
 L 46.0622,9.07109 L 45.9564,8.77541 L 45.8221,8.49153 L 45.6607,8.22218 L 45.4736,7.96994 L 45.2627,7.73726
 L 45.0301,7.52637 L 44.7778,7.3393 L 44.5085,7.17785 L 44.2246,7.04359 L 43.9289,6.93779 L 43.6243,6.86149
 L 43.3137,6.81541 L 43,6.8 L 42.6863,6.81541 L 42.3757,6.86149 L 42.0711,6.93779 L 41.7754,7.04359
 L 41.4915,7.17785 L 41.2222,7.3393 L 40.9699,7.52637 L 40.7373,7.73726 L 40.5264,7.96994 L 40.3393,8.22218
 L 40.1779,8.49153 L 40.0436,8.77541 L 39.9378,9.07109 L 39.8615,9.37571 L 39.8154,9.68635 L 39.8,10
 L 39.8154,10.3137 L 39.8615,10.6243 L 39.9378,10.9289 L 40.0436,11.2246 L 40.1779,11.5085 L 40.3393,11.7778
 L 40.5264,12.0301 L 40.7373,12.2627 L 40.9699,12.4736 L 41.2222,12.6607 L 41.4915,12.8221 L 41.7754,12.9564
 L 42.0711,13.0622 L 42.3757,13.1385 L 42.6863,13.1846 L 43,13.2 z
" stroke="black" fill="lightgray" stroke-width="0.5"/>
</svg>
