<?xml version="1.0" standalone="no"?>
<!DOCTYPE svg PUBLIC "-//W3C//DTD SVG 1.1//EN" "http://www.w3.org/Graphics/SVG/1.1/DTD/svg11.dtd">
<svg width="276mm" height="40mm" viewBox="-138 -20 276 40" xmlns="http://www.w3.org/2000/svg" version="1.1">
<title>OpenSCAD Model</title>
<path d="
M 136.598,19.9952 L 136.695,19.9808 L 136.79,19.9569 L 136.883,19.9239 L 136.971,19.8819 L 137.056,19.8315
 L 137.134,19.773 L 137.207,19.7071 L 137.273,19.6344 L 137.331,19.5556 L 137.382,19.4714 L 137.424,19.3827
 L 137.457,19.2903 L 137.481,19.1951 L 137.495,19.098 L 137.5,19 L 137.5,-19 L 137.495,-19.098
 L 137.481,-19.1951 L 137.457,-19.2903 L 137.424,-19.3827 L 137.382,-19.4714 L 137.331,-19.5556 L 137.273,-19.6344
 L 137.207,-19.7071 L 137.134,-19.773 L 137.056,-19.8315 L 136.971,-19.8819 L 136.883,-19.9239 L 136.79,-19.9569
 L 136.695,-19.9808 L 136.598,-19.9952 L 136.5,-20 L -136.5,-20 L -136.598,-19.9952 L -136.695,-19.9808
 L -136.79,-19.9569 L -136.883,-19.9239 L -136.971,-19.8819 L -137.056,-19.8315 L -137.134,-19.773 L -137.207,-19.7071
 L -137.273,-19.6344 L -137.331,-19.5556 L -137.382,-19.4714 L -137.424,-19.3827 L -137.457,-19.2903 L -137.481,-19.1951
 L -137.495,-19.098 L -137.5,-19 L -137.5,19 L -137.495,19.098 L -137.481,19.1951 L -137.457,19.2903
 L -137.424,19.3827 L -137.382,19.4714 L -137.331,19.5556 L -137.273,19.6344 L -137.207,19.7071 L -137.134,19.773
 L -137.056,19.8315 L -136.971,19.8819 L -136.883,19.9239 L -136.79,19.9569 L -136.695,19.9808 L -136.598,19.9952
 L -136.5,20 L 136.5,20 z
M 100.338,-9.85795 L 100.178,-9.8817 L 100.021,-9.92105 L 99.8686,-9.9756 L 99.7222,-10.0448 L 99.5833,-10.1281
 L 99.4533,-10.2245 L 99.3333,-10.3333 L 99.2245,-10.4533 L 99.1281,-10.5833 L 99.0448,-10.7222 L 98.9756,-10.8686
 L 98.921,-11.021 L 98.8817,-11.1781 L 98.8579,-11.3383 L 98.85,-11.5 L 98.8579,-11.6617 L 98.8817,-11.8219
 L 98.921,-11.979 L 98.9756,-12.1314 L 99.0448,-12.2778 L 99.1281,-12.4167 L 99.2245,-12.5467 L 99.3333,-12.6667
 L 99.4533,-12.7755 L 99.5833,-12.8719 L 99.7222,-12.9552 L 99.8686,-13.0244 L 100.021,-13.079 L 100.178,-13.1183
 L 100.338,-13.1421 L 100.5,-13.15 L 100.662,-13.1421 L 100.822,-13.1183 L 100.979,-13.079 L 101.131,-13.0244
 L 101.278,-12.9552 L 101.417,-12.8719 L 101.547,-12.7755 L 101.667,-12.6667 L 101.775,-12.5467 L 101.872,-12.4167
 L 101.955,-12.2778 L 102.024,-12.1314 L 102.079,-11.979 L 102.118,-11.8219 L 102.142,-11.6617 L 102.15,-11.5
 L 102.142,-11.3383 L 102.118,-11.1781 L 102.079,-11.021 L 102.024,-10.8686 L 101.955,-10.7222 L 101.872,-10.5833
 L 101.775,-10.4533 L 101.667,-10.3333 L 101.547,-10.2245 L 101.417,-10.1281 L 101.278,-10.0448 L 101.131,-9.9756
 L 100.979,-9.92105 L 100.822,-9.8817 L 100.662,-9.85795 L 100.5,-9.85 z
M -25,12 L -25.196,11.9904 L -25.3902,11.9616 L -25.5806,11.9139 L -25.7654,11.8478 L -25.9428,11.7638
 L -26.1111,11.6629 L -26.2688,11.546 L -26.4142,11.4142 L -26.546,11.2688 L -26.6629,11.1111 L -26.7638,10.9428
 L -26.8478,10.7654 L -26.9139,10.5806 L -26.9616,10.3902 L -26.9904,10.196 L -27,10 L -27,-10
 L -26.9904,-10.196 L -26.9616,-10.3902 L -26.9139,-10.5806 L -26.8478,-10.7654 L -26.7638,-10.9428 L -26.6629,-11.1111
 L -26.546,-11.2688 L -26.4142,-11.4142 L -26.2688,-11.546 L -26.1111,-11.6629 L -25.9428,-11.7638 L -25.7654,-11.8478
 L -25.5806,-11.9139 L -25.3902,-11.9616 L -25.196,-11.9904 L -25,-12 L 25,-12 L 25.196,-11.9904
 L 25.3902,-11.9616 L 25.5806,-11.9139 L 25.7654,-11.8478 L 25.9428,-11.7638 L 26.1111,-11.6629 L 26.2688,-11.546
 L 26.4142,-11.4142 L 26.546,-11.2688 L 26.6629,-11.1111 L 26.7638,-10.9428 L 26.8478,-10.7654 L 26.9139,-10.5806
 L 26.9616,-10.3902 L 26.9904,-10.196 L 27,-10 L 27,10 L 26.9904,10.196 L 26.9616,10.3902
 L 26.9139,10.5806 L 26.8478,10.7654 L 26.7638,10.9428 L 26.6629,11.1111 L 26.546,11.2688 L 26.4142,11.4142
 L 26.2688,11.546 L 26.1111,11.6629 L 25.9428,11.7638 L 25.7654,11.8478 L 25.5806,11.9139 L 25.3902,11.9616
 L 25.196,11.9904 L 25,12 z
M 86.8432,-8.4077 L 86.6879,-8.43074 L 86.5355,-8.4689 L 86.3877,-8.52179 L 86.2458,-8.58893 L 86.1111,-8.66965
 L 85.985,-8.76318 L 85.8686,-8.86863 L 85.7632,-8.98497 L 85.6696,-9.11109 L 85.5889,-9.24577 L 85.5218,-9.38771
 L 85.4689,-9.53554 L 85.4307,-9.68786 L 85.4077,-9.84317 L 85.4,-10 L 85.4077,-10.1568 L 85.4307,-10.3121
 L 85.4689,-10.4645 L 85.5218,-10.6123 L 85.5889,-10.7542 L 85.6696,-10.8889 L 85.7632,-11.015 L 85.8686,-11.1314
 L 85.985,-11.2368 L 86.1111,-11.3304 L 86.2458,-11.4111 L 86.3877,-11.4782 L 86.5355,-11.5311 L 86.6879,-11.5693
 L 86.8432,-11.5923 L 87,-11.6 L 87.1568,-11.5923 L 87.3121,-11.5693 L 87.4645,-11.5311 L 87.6123,-11.4782
 L 87.7542,-11.4111 L 87.8889,-11.3304 L 88.015,-11.2368 L 88.1314,-11.1314 L 88.2368,-11.015 L 88.3304,-10.8889
 L 88.4111,-10.7542 L 88.4782,-10.6123 L 88.5311,-10.4645 L 88.5693,-10.3121 L 88.5923,-10.1568 L 88.6,-10
 L 88.5923,-9.84317 L 88.5693,-9.68786 L 88.5311,-9.53554 L 88.4782,-9.38771 L 88.4111,-9.24577 L 88.3304,-9.11109
 L 88.2368,-8.98497 L 88.1314,-8.86863 L 88.015,-8.76318 L 87.8889,-8.66965 L 87.7542,-8.58893 L 87.6123,-8.52179
 L 87.4645,-8.4689 L 87.3121,-8.43074 L 87.1568,-8.4077 L 87,-8.4 z
M 42.8432,-8.4077 L 42.6879,-8.43074 L 42.5355,-8.4689 L 42.3877,-8.52179 L 42.2458,-8.58893 L 42.1111,-8.66965
 L 41.985,-8.76318 L 41.8686,-8.86863 L 41.7632,-8.98497 L 41.6696,-9.11109 L 41.5889,-9.24577 L 41.5218,-9.38771
 L 41.4689,-9.53554 L 41.4307,-9.68786 L 41.4077,-9.84317 L 41.4,-10 L 41.4077,-10.1568 L 41.4307,-10.3121
 L 41.4689,-10.4645 L 41.5218,-10.6123 L 41.5889,-10.7542 L 41.6696,-10.8889 L 41.7632,-11.015 L 41.8686,-11.1314
 L 41.985,-11.2368 L 42.1111,-11.3304 L 42.2458,-11.4111 L 42.3877,-11.4782 L 42.5355,-11.5311 L 42.6879,-11.5693
 L 42.8432,-11.5923 L 43,-11.6 L 43.1568,-11.5923 L 43.3121,-11.5693 L 43.4645,-11.5311 L 43.6123,-11.4782
 L 43.7542,-11.4111 L 43.8889,-11.3304 L 44.015,-11.2368 L 44.1314,-11.1314 L 44.2368,-11.015 L 44.3304,-10.8889
 L 44.4111,-10.7542 L 44.4782,-10.6123 L 44.5311,-10.4645 L 44.5693,-10.3121 L 44.5923,-10.1568 L 44.6,-10
 L 44.5923,-9.84317 L 44.5693,-9.68786 L 44.5311,-9.53554 L 44.4782,-9.38771 L 44.4111,-9.24577 L 44.3304,-9.11109
 L 44.2368,-8.98497 L 44.1314,-8.86863 L 44.015,-8.76318 L 43.8889,-8.66965 L 43.7542,-8.58893 L 43.6123,-8.52179
 L 43.4645,-8.4689 L 43.3121,-8.43074 L 43.1568,-8.4077 L 43,-8.4 z
M 108.942,10.743 L 107.894,10.5876 L 106.866,10.3302 L 105.869,9.97328 L 104.911,9.52034 L 104.003,8.97571
 L 103.152,8.34465 L 102.367,7.63322 L 101.655,6.84828 L 101.024,5.99738 L 100.48,5.08873 L 100.027,4.13107
 L 99.6698,3.13362 L 99.4124,2.106 L 99.257,1.0581 L 99.205,-0 L 99.257,-1.0581 L 99.4124,-2.106
 L 99.6698,-3.13362 L 100.027,-4.13107 L 100.48,-5.08873 L 101.024,-5.99738 L 101.655,-6.84828 L 102.367,-7.63322
 L 103.152,-8.34465 L 104.003,-8.97571 L 104.911,-9.52034 L 105.869,-9.97328 L 106.866,-10.3302 L 107.894,-10.5876
 L 108.942,-10.743 L 110,-10.795 L 111.058,-10.743 L 112.106,-10.5876 L 113.134,-10.3302 L 114.131,-9.97328
 L 115.089,-9.52034 L 115.997,-8.97571 L 116.848,-8.34465 L 117.633,-7.63322 L 118.345,-6.84828 L 118.976,-5.99738
 L 119.52,-5.08873 L 119.973,-4.13107 L 120.33,-3.13362 L 120.588,-2.106 L 120.743,-1.0581 L 120.795,-0
 L 120.743,1.0581 L 120.588,2.106 L 120.33,3.13362 L 119.973,4.13107 L 119.52,5.08873 L 118.976,5.99738
 L 118.345,6.84828 L 117.633,7.63322 L 116.848,8.34465 L 115.997,8.97571 L 115.089,9.52034 L 114.131,9.97328
 L 113.134,10.3302 L 112.106,10.5876 L 111.058,10.743 L 110,10.795 z
M -32.6568,1.5923 L -32.8121,1.56926 L -32.9645,1.5311 L -33.1123,1.47821 L -33.2542,1.41107 L -33.3889,1.33035
 L -33.515,1.23682 L -33.6314,1.13137 L -33.7368,1.01503 L -33.8304,0.888912 L -33.9111,0.754235 L -33.9782,0.612293
 L -34.0311,0.464455 L -34.0693,0.312145 L -34.0923,0.156827 L -34.1,-0 L -34.0923,-0.156827 L -34.0693,-0.312145
 L -34.0311,-0.464455 L -33.9782,-0.612293 L -33.9111,-0.754235 L -33.8304,-0.888912 L -33.7368,-1.01503 L -33.6314,-1.13137
 L -33.515,-1.23682 L -33.3889,-1.33035 L -33.2542,-1.41107 L -33.1123,-1.47821 L -32.9645,-1.5311 L -32.8121,-1.56926
 L -32.6568,-1.5923 L -32.5,-1.6 L -32.3432,-1.5923 L -32.1879,-1.56926 L -32.0355,-1.5311 L -31.8877,-1.47821
 L -31.7458,-1.41107 L -31.6111,-1.33035 L -31.485,-1.23682 L -31.3686,-1.13137 L -31.2632,-1.01503 L -31.1696,-0.888912
 L -31.0889,-0.754235 L -31.0218,-0.612293 L -30.9689,-0.464455 L -30.9307,-0.312145 L -30.9077,-0.156827 L -30.9,-0
 L -30.9077,0.156827 L -30.9307,0.312145 L -30.9689,0.464455 L -31.0218,0.612293 L -31.0889,0.754235 L -31.1696,0.888912
 L -31.2632,1.01503 L -31.3686,1.13137 L -31.485,1.23682 L -31.6111,1.33035 L -31.7458,1.41107 L -31.8877,1.47821
 L -32.0355,1.5311 L -32.1879,1.56926 L -32.3432,1.5923 L -32.5,1.6 z
M 32.3432,1.5923 L 32.1879,1.56926 L 32.0355,1.5311 L 31.8877,1.47821 L 31.7458,1.41107 L 31.6111,1.33035
 L 31.485,1.23682 L 31.3686,1.13137 L 31.2632,1.01503 L 31.1696,0.888912 L 31.0889,0.754235 L 31.0218,0.612293
 L 30.9689,0.464455 L 30.9307,0.312145 L 30.9077,0.156827 L 30.9,-0 L 30.9077,-0.156827 L 30.9307,-0.312145
 L 30.9689,-0.464455 L 31.0218,-0.612293 L 31.0889,-0.754235 L 31.1696,-0.888912 L 31.2632,-1.01503 L 31.3686,-1.13137
 L 31.485,-1.23682 L 31.6111,-1.33035 L 31.7458,-1.41107 L 31.8877,-1.47821 L 32.0355,-1.5311 L 32.1879,-1.56926
 L 32.3432,-1.5923 L 32.5,-1.6 L 32.6568,-1.5923 L 32.8121,-1.56926 L 32.9645,-1.5311 L 33.1123,-1.47821
 L 33.2542,-1.41107 L 33.3889,-1.33035 L 33.515,-1.23682 L 33.6314,-1.13137 L 33.7368,-1.01503 L 33.8304,-0.888912
 L 33.9111,-0.754235 L 33.9782,-0.612293 L 34.0311,-0.464455 L 34.0693,-0.312145 L 34.0923,-0.156827 L 34.1,-0
 L 34.0923,0.156827 L 34.0693,0.312145 L 34.0311,0.464455 L 33.9782,0.612293 L 33.9111,0.754235 L 33.8304,0.888912
 L 33.7368,1.01503 L 33.6314,1.13137 L 33.515,1.23682 L 33.3889,1.33035 L 33.2542,1.41107 L 33.1123,1.47821
 L 32.9645,1.5311 L 32.8121,1.56926 L 32.6568,1.5923 L 32.5,1.6 z
M -132.657,1.5923 L -132.812,1.56926 L -132.964,1.5311 L -133.112,1.47821 L -133.254,1.41107 L -133.389,1.33035
 L -133.515,1.23682 L -133.631,1.13137 L -133.737,1.01503 L -133.83,0.888912 L -133.911,0.754235 L -133.978,0.612293
 L -134.031,0.464455 L -134.069,0.312145 L -134.092,0.156827 L -134.1,-0 L -134.092,-0.156827 L -134.069,-0.312145
 L -134.031,-0.464455 L -133.978,-0.612293 L -133.911,-0.754235 L -133.83,-0.888912 L -133.737,-1.01503 L -133.631,-1.13137
 L -133.515,-1.23682 L -133.389,-1.33035 L -133.254,-1.41107 L -133.112,-1.47821 L -132.964,-1.5311 L -132.812,-1.56926
 L -132.657,-1.5923 L -132.5,-1.6 L -132.343,-1.5923 L -132.188,-1.56926 L -132.036,-1.5311 L -131.888,-1.47821
 L -131.746,-1.41107 L -131.611,-1.33035 L -131.485,-1.23682 L -131.369,-1.13137 L -131.263,-1.01503 L -131.17,-0.888912
 L -131.089,-0.754235 L -131.022,-0.612293 L -130.969,-0.464455 L -130.931,-0.312145 L -130.908,-0.156827 L -130.9,-0
 L -130.908,0.156827 L -130.931,0.312145 L -130.969,0.464455 L -131.022,0.612293 L -131.089,0.754235 L -131.17,0.888912
 L -131.263,1.01503 L -131.369,1.13137 L -131.485,1.23682 L -131.611,1.33035 L -131.746,1.41107 L -131.888,1.47821
 L -132.036,1.5311 L -132.188,1.56926 L -132.343,1.5923 L -132.5,1.6 z
M 132.343,1.5923 L 132.188,1.56926 L 132.036,1.5311 L 131.888,1.47821 L 131.746,1.41107 L 131.611,1.33035
 L 131.485,1.23682 L 131.369,1.13137 L 131.263,1.01503 L 131.17,0.888912 L 131.089,0.754235 L 131.022,0.612293
 L 130.969,0.464455 L 130.931,0.312145 L 130.908,0.156827 L 130.9,-0 L 130.908,-0.156827 L 130.931,-0.312145
 L 130.969,-0.464455 L 131.022,-0.612293 L 131.089,-0.754235 L 131.17,-0.888912 L 131.263,-1.01503 L 131.369,-1.13137
 L 131.485,-1.23682 L 131.611,-1.33035 L 131.746,-1.41107 L 131.888,-1.47821 L 132.036,-1.5311 L 132.188,-1.56926
 L 132.343,-1.5923 L 132.5,-1.6 L 132.657,-1.5923 L 132.812,-1.56926 L 132.964,-1.5311 L 133.112,-1.47821
 L 133.254,-1.41107 L 133.389,-1.33035 L 133.515,-1.23682 L 133.631,-1.13137 L 133.737,-1.01503 L 133.83,-0.888912
 L 133.911,-0.754235 L 133.978,-0.612293 L 134.031,-0.464455 L 134.069,-0.312145 L 134.092,-0.156827 L 134.1,-0
 L 134.092,0.156827 L 134.069,0.312145 L 134.031,0.464455 L 133.978,0.612293 L 133.911,0.754235 L 133.83,0.888912
 L 133.737,1.01503 L 133.631,1.13137 L 133.515,1.23682 L 133.389,1.33035 L 133.254,1.41107 L 133.112,1.47821
 L 132.964,1.5311 L 132.812,1.56926 L 132.657,1.5923 L 132.5,1.6 z
M -52.1568,7.5923 L -52.3121,7.56926 L -52.4645,7.5311 L -52.6123,7.47821 L -52.7542,7.41107 L -52.8889,7.33035
 L -53.015,7.23682 L -53.1314,7.13137 L -53.2368,7.01503 L -53.3304,6.88891 L -53.4111,6.75423 L -53.4782,6.61229
 L -53.5311,6.46446 L -53.5693,6.31214 L -53.5923,6.15683 L -53.6,6 L -53.5923,5.84317 L -53.5693,5.68786
 L -53.5311,5.53554 L -53.4782,5.38771 L -53.4111,5.24577 L -53.3304,5.11109 L -53.2368,4.98497 L -53.1314,4.86863
 L -53.015,4.76318 L -52.8889,4.66965 L -52.7542,4.58893 L -52.6123,4.52179 L -52.4645,4.4689 L -52.3121,4.43074
 L -52.1568,4.4077 L -52,4.4 L -51.8432,4.4077 L -51.6879,4.43074 L -51.5355,4.4689 L -51.3877,4.52179
 L -51.2458,4.58893 L -51.1111,4.66965 L -50.985,4.76318 L -50.8686,4.86863 L -50.7632,4.98497 L -50.6696,5.11109
 L -50.5889,5.24577 L -50.5218,5.38771 L -50.4689,5.53554 L -50.4307,5.68786 L -50.4077,5.84317 L -50.4,6
 L -50.4077,6.15683 L -50.4307,6.31214 L -50.4689,6.46446 L -50.5218,6.61229 L -50.5889,6.75423 L -50.6696,6.88891
 L -50.7632,7.01503 L -50.8686,7.13137 L -50.985,7.23682 L -51.1111,7.33035 L -51.2458,7.41107 L -51.3877,7.47821
 L -51.5355,7.5311 L -51.6879,7.56926 L -51.8432,7.5923 L -52,7.6 z
M -118.157,7.5923 L -118.312,7.56926 L -118.464,7.5311 L -118.612,7.47821 L -118.754,7.41107 L -118.889,7.33035
 L -119.015,7.23682 L -119.131,7.13137 L -119.237,7.01503 L -119.33,6.88891 L -119.411,6.75423 L -119.478,6.61229
 L -119.531,6.46446 L -119.569,6.31214 L -119.592,6.15683 L -119.6,6 L -119.592,5.84317 L -119.569,5.68786
 L -119.531,5.53554 L -119.478,5.38771 L -119.411,5.24577 L -119.33,5.11109 L -119.237,4.98497 L -119.131,4.86863
 L -119.015,4.76318 L -118.889,4.66965 L -118.754,4.58893 L -118.612,4.52179 L -118.464,4.4689 L -118.312,4.43074
 L -118.157,4.4077 L -118,4.4 L -117.843,4.4077 L -117.688,4.43074 L -117.536,4.4689 L -117.388,4.52179
 L -117.246,4.58893 L -117.111,4.66965 L -116.985,4.76318 L -116.869,4.86863 L -116.763,4.98497 L -116.67,5.11109
 L -116.589,5.24577 L -116.522,5.38771 L -116.469,5.53554 L -116.431,5.68786 L -116.408,5.84317 L -116.4,6
 L -116.408,6.15683 L -116.431,6.31214 L -116.469,6.46446 L -116.522,6.61229 L -116.589,6.75423 L -116.67,6.88891
 L -116.763,7.01503 L -116.869,7.13137 L -116.985,7.23682 L -117.111,7.33035 L -117.246,7.41107 L -117.388,7.47821
 L -117.536,7.5311 L -117.688,7.56926 L -117.843,7.5923 L -118,7.6 z
M 86.8432,11.5923 L 86.6879,11.5693 L 86.5355,11.5311 L 86.3877,11.4782 L 86.2458,11.4111 L 86.1111,11.3304
 L 85.985,11.2368 L 85.8686,11.1314 L 85.7632,11.015 L 85.6696,10.8889 L 85.5889,10.7542 L 85.5218,10.6123
 L 85.4689,10.4645 L 85.4307,10.3121 L 85.4077,10.1568 L 85.4,10 L 85.4077,9.84317 L 85.4307,9.68786
 L 85.4689,9.53554 L 85.5218,9.38771 L 85.5889,9.24577 L 85.6696,9.11109 L 85.7632,8.98497 L 85.8686,8.86863
 L 85.985,8.76318 L 86.1111,8.66965 L 86.2458,8.58893 L 86.3877,8.52179 L 86.5355,8.4689 L 86.6879,8.43074
 L 86.8432,8.4077 L 87,8.4 L 87.1568,8.4077 L 87.3121,8.43074 L 87.4645,8.4689 L 87.6123,8.52179
 L 87.7542,8.58893 L 87.8889,8.66965 L 88.015,8.76318 L 88.1314,8.86863 L 88.2368,8.98497 L 88.3304,9.11109
 L 88.4111,9.24577 L 88.4782,9.38771 L 88.5311,9.53554 L 88.5693,9.68786 L 88.5923,9.84317 L 88.6,10
 L 88.5923,10.1568 L 88.5693,10.3121 L 88.5311,10.4645 L 88.4782,10.6123 L 88.4111,10.7542 L 88.3304,10.8889
 L 88.2368,11.015 L 88.1314,11.1314 L 88.015,11.2368 L 87.8889,11.3304 L 87.7542,11.4111 L 87.6123,11.4782
 L 87.4645,11.5311 L 87.3121,11.5693 L 87.1568,11.5923 L 87,11.6 z
M 42.8432,11.5923 L 42.6879,11.5693 L 42.5355,11.5311 L 42.3877,11.4782 L 42.2458,11.4111 L 42.1111,11.3304
 L 41.985,11.2368 L 41.8686,11.1314 L 41.7632,11.015 L 41.6696,10.8889 L 41.5889,10.7542 L 41.5218,10.6123
 L 41.4689,10.4645 L 41.4307,10.3121 L 41.4077,10.1568 L 41.4,10 L 41.4077,9.84317 L 41.4307,9.68786
 L 41.4689,9.53554 L 41.5218,9.38771 L 41.5889,9.24577 L 41.6696,9.11109 L 41.7632,8.98497 L 41.8686,8.86863
 L 41.985,8.76318 L 42.1111,8.66965 L 42.2458,8.58893 L 42.3877,8.52179 L 42.5355,8.4689 L 42.6879,8.43074
 L 42.8432,8.4077 L 43,8.4 L 43.1568,8.4077 L 43.3121,8.43074 L 43.4645,8.4689 L 43.6123,8.52179
 L 43.7542,8.58893 L 43.8889,8.66965 L 44.015,8.76318 L 44.1314,8.86863 L 44.2368,8.98497 L 44.3304,9.11109
 L 44.4111,9.24577 L 44.4782,9.38771 L 44.5311,9.53554 L 44.5693,9.68786 L 44.5923,9.84317 L 44.6,10
 L 44.5923,10.1568 L 44.5693,10.3121 L 44.5311,10.4645 L 44.4782,10.6123 L 44.4111,10.7542 L 44.3304,10.8889
 L 44.2368,11.015 L 44.1314,11.1314 L 44.015,11.2368 L 43.8889,11.3304 L 43.7542,11.4111 L 43.6123,11.4782
 L 43.4645,11.5311 L 43.3121,11.5693 L 43.1568,11.5923 L 43,11.6 z
M 119.338,13.1421 L 119.178,13.1183 L 119.021,13.079 L 118.869,13.0244 L 118.722,12.9552 L 118.583,12.8719
 L 118.453,12.7755 L 118.333,12.6667 L 118.225,12.5467 L 118.128,12.4167 L 118.045,12.2778 L 117.976,12.1314
 L 117.921,11.979 L 117.882,11.8219 L 117.858,11.6617 L 117.85,11.5 L 117.858,11.3383 L 117.882,11.1781
 L 117.921,11.021 L 117.976,10.8686 L 118.045,10.7222 L 118.128,10.5833 L 118.225,10.4533 L 118.333,10.3333
 L 118.453,10.2245 L 118.583,10.1281 L 118.722,10.0448 L 118.869,9.9756 L 119.021,9.92105 L 119.178,9.8817
 L 119.338,9.85795 L 119.5,9.85 L 119.662,9.85795 L 119.822,9.8817 L 119.979,9.92105 L 120.131,9.9756
 L 120.278,10.0448 L 120.417,10.1281 L 120.547,10.2245 L 120.667,10.3333 L 120.775,10.4533 L 120.872,10.5833
 L 120.955,10.7222 L 121.024,10.8686 L 121.079,11.021 L 121.118,11.1781 L 121.142,11.3383 L 121.15,11.5
 L 121.142,11.6617 L 121.118,11.8219 L 121.079,11.979 L 121.024,12.1314 L 120.955,12.2778 L 120.872,12.4167
 L 120.775,12.5467 L 120.667,12.6667 L 120.547,12.7755 L 120.417,12.8719 L 120.278,12.9552 L 120.131,13.0244
 L 119.979,13.079 L 119.822,13.1183 L 119.662,13.1421 L 119.5,13.15 z
" stroke="black" fill="lightgray" stroke-width="0.5"/>
</svg>
